<svg viewBox="0 0 129.80401 129.804">
  <defs>
    <radialGradient id="bl-1995803092">
      <stop offset="0%" style="stop-color: #000;" />
      <stop offset="80%" style="stop-color: #d55901;" />
      <stop offset="100%" style="stop-color: #d55901;" />
    </radialGradient>
  </defs>
  <path
    d="M 91.28125 7.1035156 C 84.00521 7.1035156 74.480447 12.289325 64.849609 21.285156 C 55.218778 12.342245 45.694019 7.2089844 38.417969 7.2089844 C 38.443869 7.2306844 38.464334 7.2497844 38.490234 7.2714844 C 38.465844 7.2600844 38.442269 7.2475281 38.417969 7.2363281 C 36.195469 7.2363281 34.18375 7.7113869 32.4375 8.7167969 C 25.002709 13.003046 23.335416 26.366044 27.171875 43.140625 C 10.714796 48.220625 0 56.343518 0 64.916016 C 0 73.514974 10.767343 81.663256 27.277344 86.716797 C 23.467343 103.54429 25.161796 116.9325 32.623047 121.21875 C 34.342836 122.22416 36.353672 122.70117 38.576172 122.70117 C 45.852211 122.70117 55.376982 117.51536 65.007812 108.51953 C 74.63864 117.46244 84.163413 122.59375 91.439453 122.59375 C 93.661953 122.59375 95.673672 122.1187 97.419922 121.11328 C 104.85471 116.82703 106.52005 103.46599 102.68359 86.691406 C 119.08776 81.637867 129.80469 73.488516 129.80469 64.916016 C 129.80469 56.317057 119.03539 48.16682 102.52539 43.113281 C 106.33539 26.28578 104.64289 12.897578 97.181641 8.6113281 C 95.461851 7.6059081 93.449956 7.1308594 91.253906 7.1308594 C 91.254646 7.1433594 91.28125 7.1160156 91.28125 7.1035156 z M 55.941406 38.324219 C 57.556307 38.355219 59.183189 38.614893 60.773438 39.121094 C 62.043729 39.525444 63.082031 39.894786 63.082031 39.941406 C 63.082031 39.988006 62.094428 41.039584 60.886719 42.277344 C 57.36942 45.882205 55.50631 50.322438 55.480469 55.162109 L 55.466797 57.792969 L 53.621094 59.095703 C 52.605907 59.812544 51.140844 61.198921 50.365234 62.175781 C 48.861594 64.069563 46.658203 68.322701 46.658203 69.332031 C 46.658203 70.279382 45.943145 70.055934 44.203125 68.564453 C 37.748726 63.031982 36.445369 53.166748 41.224609 46.009766 C 44.550398 41.029358 50.173925 38.213678 55.941406 38.324219 z M 74.388672 38.349609 C 77.350873 38.370719 80.324357 39.135525 82.904297 40.603516 C 86.719927 42.774626 90.157998 47.32358 91.111328 51.462891 C 91.610998 53.63244 91.558049 57.816826 91.005859 59.890625 C 90.044259 63.502002 87.367692 67.411856 84.419922 69.509766 L 83.345703 70.275391 L 83.132812 69.166016 C 82.538583 66.053246 79.297071 61.329422 76.275391 59.171875 L 74.375 57.814453 L 74.375 55.287109 C 74.375 50.300571 72.610157 46.032306 68.984375 42.242188 C 67.808197 41.012687 66.845703 39.97267 66.845703 39.931641 C 66.845703 39.890641 67.885981 39.527672 69.15625 39.125 C 70.838582 38.591722 72.611342 38.33697 74.388672 38.349609 z M 64.923828 41.197266 L 64.923828 41.199219 C 65.218738 41.199219 66.358851 42.083926 67.457031 43.166016 C 70.847441 46.506725 72.662109 50.56851 72.662109 54.8125 C 72.662109 56.771991 72.598185 56.984925 72.064453 56.765625 C 68.132953 55.150103 61.708843 55.156076 57.521484 56.779297 C 57.036484 56.967318 56.923691 56.824972 56.925781 56.033203 C 56.937691 51.516032 59.00932 46.576748 62.25 43.335938 C 63.426128 42.159757 64.628918 41.197266 64.923828 41.197266 z M 64.96875 57.046875 C 65.703598 57.055875 66.452743 57.131005 67.289062 57.265625 C 70.436331 57.772337 72.320313 58.555761 72.320312 59.357422 C 72.320312 60.518321 70.919474 63.570291 69.427734 65.65625 C 67.985914 67.672401 65.539081 69.939453 64.806641 69.939453 C 64.603941 69.939453 63.454844 68.954844 62.251953 67.751953 C 60.142663 65.642674 58.039179 62.063107 57.480469 59.630859 C 57.283817 58.774789 57.383324 58.697041 59.578125 58.015625 C 61.807314 57.323525 63.35209 57.025947 64.96875 57.046875 z M 55.634766 59.931641 C 55.854376 59.949341 55.972286 60.288292 56.228516 61.144531 C 57.048097 63.883321 58.700338 66.620519 60.886719 68.861328 C 62.094428 70.099097 63.082031 71.135446 63.082031 71.166016 C 63.082031 71.196616 62.043729 71.541189 60.773438 71.929688 C 58.053359 72.76161 56.086021 72.958934 53.494141 72.660156 C 52.454911 72.540355 50.78428 72.169088 49.78125 71.835938 C 48.008359 71.247078 47.963561 71.19927 48.164062 70.15625 C 48.755353 67.080239 52.100115 62.267267 55.078125 60.205078 C 55.335295 60.026997 55.503006 59.92105 55.634766 59.931641 z M 74.259766 59.935547 C 74.536346 59.912347 75.064964 60.352015 76.328125 61.521484 C 78.795184 63.805534 80.268872 65.984 81.226562 68.767578 C 81.891272 70.6996 81.89409 70.810748 81.3125 71.236328 C 79.79678 72.345498 75.49036 73.026485 72.3125 72.660156 C 70.276938 72.425505 66.845682 71.39957 66.845703 71.025391 C 66.845703 70.89937 67.398357 70.356069 68.072266 69.818359 C 68.746186 69.280638 69.952298 67.95024 70.753906 66.861328 C 72.008406 65.157211 72.574852 63.998398 73.994141 60.228516 C 74.060741 60.051677 74.134047 59.946086 74.259766 59.935547 z M 64.960938 72.263672 C 65.315416 72.253382 65.626204 72.401298 66.203125 72.697266 C 70.257322 74.777195 75.891061 74.935047 81.644531 73.128906 C 82.145991 72.971487 82.244141 73.162243 82.244141 74.302734 C 82.244141 78.095883 80.383968 82.873861 77.759766 85.826172 C 75.830866 87.99624 72.780599 89.957566 70 90.816406 C 67.17066 91.690296 62.647262 91.706823 60.001953 90.851562 C 57.118402 89.919292 55.450724 88.944961 53.271484 86.919922 C 49.819253 83.711952 47.685547 79.08145 47.685547 74.800781 C 47.685547 73.061521 47.722098 72.984509 48.455078 73.21875 C 53.855377 74.944579 58.882788 74.797295 63.449219 72.777344 C 64.206359 72.442424 64.606445 72.274022 64.960938 72.263672 z"
    fill="url(#bl-1995803092)"
  ></path>
</svg>
